<svg xmlns="http://www.w3.org/2000/svg" viewBox="0 0 502 92.31"><defs><style>.cls-1{fill:#27509a;}.cls-2{fill:#1c1c1c;}.cls-3{fill:#fff;}</style></defs><title>Michelin_horizontal-logo</title><g id="Layer_2" data-name="Layer 2"><g id="Layer_1-2" data-name="Layer 1"><polygon class="cls-1" points="2.61 85.07 0 92.16 270.88 92.16 273.49 85.07 2.61 85.07"/><path class="cls-2" d="M136.74,85.07l.59-.2.47-.16c2-.65,6.61-3.07,8.31-6.42a16.49,16.49,0,0,0,7.55-5.17,19.8,19.8,0,0,0,6.57-2.54,21.26,21.26,0,0,0,6.41-5.06,16.37,16.37,0,0,0,2.28-3.68,40.33,40.33,0,0,0,3.66-2.24c5.21-3.49,6.32-9.86,6.43-10.58l.06-.46c.26,0,.53,0,.79,0,5.24,0,12.08-3.29,15.76-5.07l0,0c.57-.28,1.06-.51,1.31-.62a43.24,43.24,0,0,0,6.34-3.62c3.31-2.22,5.59-4.29,6.77-6.15a3.56,3.56,0,0,0,.45-1l2.15-1.33a4.08,4.08,0,0,0,1.48-1.65c.58-.33,1.08-.63,1.24-.73a4,4,0,0,0,1.82-4.82l0-.06a6.52,6.52,0,0,0-4.55-4.19,5.36,5.36,0,0,0-4.91-3,5.12,5.12,0,0,0-1.16.12c-.14,0-.67.15-4.78,1.14l-6.07,1.45a5.74,5.74,0,0,0-.21-4.48,4.9,4.9,0,0,0-4.29-2.8,4.26,4.26,0,0,0-1.8.4l-.05,0c-.23.11-.66.33-11.46,7.33a3.79,3.79,0,0,0-.4.3c-5.25,4.58-7.15,7.25-7.6,8a11.74,11.74,0,0,0-1.06,1.92l-.84-.4a16.52,16.52,0,0,0-6.71-1.45,15.38,15.38,0,0,0-7.85,2.1,40.45,40.45,0,0,0-4.3,3,14,14,0,0,0-2.53,2.51,16.4,16.4,0,0,0-3.81,1.27,25,25,0,0,0-3.68,2.57l-.08.06-.66.52a17.64,17.64,0,0,0-3.32,3.47l-.16,0a19.33,19.33,0,0,0-4,1.45c-.54.26-1.07.55-1.6.86a22.39,22.39,0,0,0-5.65,1l-.1,0a23.58,23.58,0,0,0-4.43-.41,17.69,17.69,0,0,0-2.81.2,32.39,32.39,0,0,0-4.17.86A20.15,20.15,0,0,0,107,49.67,72.69,72.69,0,0,0,94,48c3-4,4.44-8.62,4-12.59a20,20,0,0,0-7.79-13.21C87,9.18,77.92,3.63,70.4,2.77,68.92,1.06,66.09,0,62.91,0a14.25,14.25,0,0,0-3.75.5C55.15,1.61,52,4.67,51.36,8c-4,3.32-10.24,10.77-8.52,24.2-1.51,2.05-4.41,7.24-2.43,15.06a15.86,15.86,0,0,0,9.68,11.28A40.91,40.91,0,0,0,40,65.3c-.17.16-.34.32-.5.49a26.46,26.46,0,0,0-17.69,8.08,36,36,0,0,0-7.33,11.2Z"/><path class="cls-3" d="M136.5,80.77a21.25,21.25,0,0,1-7.26,1.44h-.31A15.63,15.63,0,0,1,118.17,77,17.73,17.73,0,0,1,114,63.65a15.38,15.38,0,0,1,7-11.35,12.41,12.41,0,0,1,2.55-1.23l1.07-.35-.2.28a18.24,18.24,0,0,0-1.63,16.55,22.92,22.92,0,0,0,3.3,5.5,16.55,16.55,0,0,0,12.81,6.1l.74,0a13.8,13.8,0,0,1-3.13,1.64"/><path class="cls-3" d="M143.85,74.7a15.11,15.11,0,0,1-5,.88,12.85,12.85,0,0,1-5.29-1.13c-4-1.79-6.2-5.23-7.54-8.32A14.6,14.6,0,0,1,127.37,53a13.6,13.6,0,0,1,5.74-4.63c-1.18,3.46-1.72,8.85,2.08,15.25l0,0,0,0a19.46,19.46,0,0,0,7.43,7,18.23,18.23,0,0,0,5.64,1.89,18.85,18.85,0,0,1-4.46,2.16"/><path class="cls-3" d="M158.18,67a14.36,14.36,0,0,1-6.74,2.21h-.39a15.16,15.16,0,0,1-12.79-7.4c-6-10.08.56-17,2.69-18.66a36.93,36.93,0,0,1,3.59-2.63,15.28,15.28,0,0,0-.71,2.71,17.36,17.36,0,0,0,1.06,8.72,17.55,17.55,0,0,0,7.49,9,16.72,16.72,0,0,0,8.54,2.47,15.1,15.1,0,0,0,2.21-.16A19.92,19.92,0,0,1,158.18,67"/><path class="cls-3" d="M30.32,85.07a31.9,31.9,0,0,1,5.91-14.71,22.28,22.28,0,0,0-11.51,6.42A31.49,31.49,0,0,0,19,85.07Z"/><path class="cls-3" d="M105.76,85.07c-.75-.66-1.38-1.3-1.92-1.85-2.58-2.65-4.59-7.33-5.25-10.58a22.67,22.67,0,0,1,2.15-15.28,18.14,18.14,0,0,1,2.94-4.15,75.64,75.64,0,0,0-12.74-1.1,3.34,3.34,0,0,1-.84,1.09c-2,1.74-3.71,2.21-2.55.87s1.09-2.79.77-3.1-.73-.08-1,0c-3.33,1.2-3.93.68-3.27.28a26.46,26.46,0,0,0,5.69-4.51c2.48-2.83,4.57-7,4.1-10.78a15.54,15.54,0,0,0-5.6-10l-.64-.49-.22-.15,0,0h0a6.58,6.58,0,0,0-1.38-.74c-.69-.24-.46-.71.25-.86-.08-.36-.15-.75-.24-1.09s-.18-.67-.28-1c-3-9.91-10-14.12-15.87-14.73l-.18,0c-1.36-.14-2.29-.11-2.51-.14-1-.12-.56-.53,0-.75a.28.28,0,0,0,.18-.41c-.69-1-3.8-1.95-7.05-1a7.93,7.93,0,0,0-4,2.66,4.43,4.43,0,0,0-.41.7,1.18,1.18,0,0,0-.07.2c-.14.41.34.28.34.28,1.54-.32,2.22.1,1,.75a24.29,24.29,0,0,0-2.58,1.69,19.92,19.92,0,0,0-5.7,7,22.91,22.91,0,0,0-2.1,10.76c0,.53.09,1.63.14,2s.34.8,1.28.67c1.31-.17,2.13-.38.93.57A27.18,27.18,0,0,0,46.2,34.6c-1.75,2.27-3.1,6.4-1.78,11.63a11.87,11.87,0,0,0,8.39,8.88A47.75,47.75,0,0,0,66.2,56.6c.5,0,.63.06.57.25s-.44.33-.89.4c-.76.1-2.38.41-5.17.68a1.31,1.31,0,0,0-1.18.77v0C59.19,60,61.66,61,62,61.1c1,.3.53.79.14.85-1.77.32-4.93-.4-6.69-.51a6.21,6.21,0,0,0-2.4.3,37.33,37.33,0,0,0-10.22,6.6,28.35,28.35,0,0,0-8.87,16.73Z"/><path class="cls-3" d="M106.4,80.73a17.32,17.32,0,0,0,5.91,4.34h12.23a17.57,17.57,0,0,1-2.71-1,20.47,20.47,0,0,1-6.29-4.64A20.1,20.1,0,0,1,111.35,72a22,22,0,0,1-.95-8.69,18.59,18.59,0,0,1,2.9-8.27,19.29,19.29,0,0,1,4.11-4.57l-.5.07a31.64,31.64,0,0,0-3.62.73A16.13,16.13,0,0,0,103.91,59a19.08,19.08,0,0,0-1.83,12.94,20.22,20.22,0,0,0,4.32,8.8"/><path class="cls-3" d="M213.56,25.45c-.35.22-.81.48-1.24.72l0-.07a3.85,3.85,0,0,0-2.42-1.89c-1.55-.37-3.5.26-6.13,1.95C199.91,28.63,194,30,194,30a.75.75,0,0,0,.17,1.49h.17a38.44,38.44,0,0,0,10.27-4.08c2.2-1.42,3.87-2,5-1.76a2.23,2.23,0,0,1,1.32,1h0c.5.76,0,1.12,0,1.15l-2.7,1.67a3.72,3.72,0,0,0-2.44-1.23,5.56,5.56,0,0,0-4.19,1.85,19.38,19.38,0,0,1-7.27,4.33.76.76,0,0,0,.2,1.49.62.62,0,0,0,.19,0,20.66,20.66,0,0,0,7.92-4.69,4.17,4.17,0,0,1,3-1.44,2.2,2.2,0,0,1,1.54.84.52.52,0,0,1,0,.59c-2.11,3.32-9.43,7.55-11.52,8.43-1.58.67-7.79,4-12.92,5.09A9.56,9.56,0,0,1,181,45l-.17,0c-.75,0-4.19.09-5.22-1-1.48-1.5-2-.43-1.56,1.51-1.62,1-4.06,2.46-4.7,2.86-1.68,1-3.88-.12-4.26-.13-.91,0,1.25,2.68,3,2.94s5.46-2,5.46-2l1.35-.88h0s-.8,5.18-4.64,7.75A26.4,26.4,0,0,1,166,58.64a11.29,11.29,0,0,1-5.06,1.21,13.15,13.15,0,0,1-6.73-2,14.66,14.66,0,0,1-6.85-14.08,12.86,12.86,0,0,1,4.36-7.58,37.07,37.07,0,0,1,3.9-2.68A11.16,11.16,0,0,1,161.32,32a12.36,12.36,0,0,1,5,1.07A5.18,5.18,0,0,0,165,34.27c-.71,1.06-1.68,3.5-1,3.48.48,0,.81-1.19,2.45-2,.8-.42,4.64-2.67,4.64-2.67a9.34,9.34,0,0,1,.33-1,17.63,17.63,0,0,1,1.45-2.44l.43-.58a22.31,22.31,0,0,1,2.15-2.46h0c1.05-1.1,2.47-2.47,4.36-4.12,0,0,10.62-6.89,11.11-7.13a.65.65,0,0,1,.29-.06c.91,0,2.19,1.58.59,3.69a19.59,19.59,0,0,1-4,3.75,5,5,0,0,1-1.14.69,22.91,22.91,0,0,0-4.06,2.08c-.37.29-.35.74.09.55a33,33,0,0,1,4.08-1.29c2.42-.53,20.15-4.8,20.48-4.87a3,3,0,0,1,.44,0,1.84,1.84,0,0,1,1.91,1.5l0,.13-16.26,4.84a.76.76,0,0,0-.51.94.79.79,0,0,0,.59.53.73.73,0,0,0,.36,0l14.48-4.31c.29-.07.84-.21,1.87-.56l.17,0a3.18,3.18,0,0,1,.88-.13,2.86,2.86,0,0,1,2.62,2,.58.58,0,0,1-.33.74"/><path class="cls-2" d="M74.49,21.3a12,12,0,0,0,.4,3A9.39,9.39,0,0,0,76.14,27a4.12,4.12,0,0,0,2,1.66h0l.07,0,.08,0h0a2.46,2.46,0,0,0,.6.07,5.52,5.52,0,0,0,1.07-.14,4.61,4.61,0,0,0,1.21-.38A2.42,2.42,0,0,0,82,27a5.75,5.75,0,0,0,.32-1.64,8.08,8.08,0,0,0-.38-2.89l0,.12c.54,2.48-.2,4.76-1.67,5.1s-3.12-1.4-3.67-3.88a7.69,7.69,0,0,1-.17-1.93,1.16,1.16,0,0,0,1.22.55,1.34,1.34,0,0,0,.72-1.73,1.4,1.4,0,0,0-1.26-1.15,2,2,0,0,1,1.16-.85c1-.22,2,.44,2.73,1.6a8.32,8.32,0,0,0-.63-1,4.16,4.16,0,0,0-2.32-1.72,2.81,2.81,0,0,0-.5,0,3,3,0,0,0-2.27,1,4.26,4.26,0,0,0-.81,2.74m-.56,3a14.4,14.4,0,0,1-.57-4.3c.13-2.27,1.29-3.55,2.68-4a4.35,4.35,0,0,1,4.56,1.64,12.37,12.37,0,0,1,1.62,2.9,11.6,11.6,0,0,1,.47,1.18,9.29,9.29,0,0,1,.56,3.62,6.68,6.68,0,0,1-.38,1.91,3.18,3.18,0,0,1-1.32,1.81,5.65,5.65,0,0,1-1.43.46h0a5.73,5.73,0,0,1-1.27.17,3.48,3.48,0,0,1-.79-.09l-.12,0h0l-.05,0h0a4.92,4.92,0,0,1-2.43-2,8.56,8.56,0,0,1-1.08-2.1h0L74.14,25,74,24.56v0c0-.06,0-.13,0-.2m4.23,4.37.07,0-.13,0,.06,0m-16.81.69a6.23,6.23,0,0,0,2.16,2.49,2.39,2.39,0,0,0,1.27.34A4.71,4.71,0,0,0,66.11,32h0a10.76,10.76,0,0,0,1.24-.4,3.37,3.37,0,0,0,1.47-2.48A8.69,8.69,0,0,0,69,27.65c-.17,1.55-.92,2.75-2,3-1.64.39-3.47-1.37-4.08-3.92a7.36,7.36,0,0,1-.19-2,1.16,1.16,0,0,0,1.2.46,1.35,1.35,0,0,0,.73-1.74,1.51,1.51,0,0,0-1.17-1.13,2.26,2.26,0,0,1,1.31-.92c1.2-.29,2.5.57,3.35,2,0-.08-.07-.16-.1-.23-.82-1.65-2.25-3.34-5-2.62-3.57,1-2.76,5.64-2.37,7.09a9.43,9.43,0,0,0,.68,1.67m-.91.48A10.91,10.91,0,0,1,59.3,26.3a11.84,11.84,0,0,1,0-3.71,4.66,4.66,0,0,1,1.74-3,5,5,0,0,1,2.88-.95,4.28,4.28,0,0,1,.81.08c2.58.53,3.79,2.64,4.82,5.62,1.12,3.26.34,7.32-1.75,8.21A12.64,12.64,0,0,1,66.4,33a5.77,5.77,0,0,1-1.62.26,3.43,3.43,0,0,1-1.8-.48,7.28,7.28,0,0,1-2.54-2.9m20.74,7.9A31.26,31.26,0,0,1,70.54,41a8.94,8.94,0,0,0,3.11.92,8,8,0,0,0,2.95-.36,7.61,7.61,0,0,0,2.69-1.4,8.39,8.39,0,0,0,1.89-2.38m4.89-3.16c-.2,0-.29-.23-.4-.53-.65.83-2,2.12-2.15,2.35a10.05,10.05,0,0,0-.78,1.25,21.51,21.51,0,0,1-1.26,2.12,8.19,8.19,0,0,1-2.43,2.26,9.44,9.44,0,0,1-6.21,1.27,11.48,11.48,0,0,1-3.16-1.08,7,7,0,0,0-2.6-1A21.37,21.37,0,0,1,64,41.2a.8.8,0,0,1-.77-.55.78.78,0,0,1,.68-1h0c.17,0,.34,0,.5,0l1,0a34,34,0,0,0,11-1.55,22,22,0,0,0,6.14-2.89,12.86,12.86,0,0,0,2.13-1.83l.28-.36L84.71,33c-.18-.07-.2-.41.16-.51a1.14,1.14,0,0,1,1,.28,1.62,1.62,0,0,1,.42.89c0,.39,0,.89-.22.93M63.79,39a3.27,3.27,0,0,0-1.33,1.48,1.41,1.41,0,0,0-.07.81.3.3,0,0,1-.16.39h0a.43.43,0,0,1-.34,0,.39.39,0,0,1-.18-.2,2.7,2.7,0,0,1,.71-2.57,3.32,3.32,0,0,1,.93-.63c.12-.05.48-.19.65.07s0,.52-.19.64"/><path class="cls-1" d="M424.29,40.17H410.93L400.48,68.53h26.83l3.47-9.42H417.32Zm18.68,0L432.52,68.53h13.75L456.7,40.17ZM385.06,47.6h15.66l2.76-7.43H374.84L364.4,68.53h29l2.81-7.65h-16l1.17-3.15h14.93l2.56-7H383.92Zm-76-7.17c-8.32,1.7-19.59,7.81-19.47,19,.07,6.44,7.84,10,16.75,9.76A71.08,71.08,0,0,0,316.67,68L320,59.4c-4.38.7-8.58,1.75-11.88.43-5.94-2.38-2.28-8.56,1.92-10.48a16.82,16.82,0,0,1,7.4-1.59c1.25,0,4.32.08,5.51,2.79l4.16-10A42.93,42.93,0,0,0,309,40.43m45-.26-3.78,10.22h-6.91l3.76-10.22H334L323.58,68.53h13.06l3.56-9.6h6.92l-3.56,9.6h13.08l10.45-28.36Zm-104.9,0-10,15.23s.64-8,.8-9.88c.12-1.46-.06-5.35-3.62-5.35H220.37L209.92,68.53h12.45L229.93,48l-1.59,20.51H239.4L253,48.38l-7.41,20.15H258.1l10.43-28.36Zm241.38,0-7.16,19.46c.1-2,.49-9.69.73-14.15a5.43,5.43,0,0,0-1.18-4.17,3.81,3.81,0,0,0-2.49-1.14h-16L454,68.53H465.6L473,48.45l-.87,20.08h19.43L502,40.17Zm-214.23,0L265.83,68.53h13.75L290,40.17Z"/><path class="cls-1" d="M292.61,83.59l-3.71,5h4Zm.35,6.23h-5l-1.72,2.34h-1.79l6.69-8.79a1.23,1.23,0,0,1,1.12-.6H294l.63,9.39h-1.58Z"/><path class="cls-1" d="M304.63,84l-1.06,2.88h2.68c1.68,0,2.71-.26,3.07-1.34S309.21,84,307.63,84Zm-1.47,4-1.06,2.91h3.56c1.7,0,2.4-.27,2.73-1.16.4-1.15-.26-1.75-2-1.75Zm.26-5.25h4.85c2.46,0,3.3,1.21,2.7,2.87a3,3,0,0,1-2.35,1.85,1.85,1.85,0,0,1,1.29,2.66c-.59,1.54-2,2-3.83,2H300Z"/><polygon class="cls-1" points="314.91 82.77 322.71 82.77 322.25 83.99 316.13 83.99 315.08 86.85 320.6 86.85 320.14 88.08 314.64 88.08 313.6 90.93 319.74 90.93 319.3 92.16 311.5 92.16 314.91 82.77"/><polygon class="cls-1" points="329.05 84.03 326.09 92.16 324.44 92.16 327.39 84.03 323.68 84.03 324.15 82.77 333.19 82.77 332.72 84.03 329.05 84.03"/><polygon class="cls-1" points="339.69 84.03 336.73 92.16 335.07 92.16 338.03 84.03 334.31 84.03 334.78 82.77 343.82 82.77 343.35 84.03 339.69 84.03"/><polygon class="cls-1" points="345.63 82.77 353.43 82.77 352.97 83.99 346.84 83.99 345.8 86.85 351.32 86.85 350.86 88.08 345.36 88.08 344.31 90.93 350.46 90.93 350.01 92.16 342.21 92.16 345.63 82.77"/><path class="cls-1" d="M356.83,84l-1.35,3.68h2.25c2.11,0,3-.27,3.39-1.53.55-1.55.12-2.15-2.22-2.15ZM358,88.9H355l-1.19,3.26H352.2l3.41-9.39h3.68c3.33,0,4.23,1.44,3.43,3.6a3.47,3.47,0,0,1-3.26,2.32l1.36,3.47h-1.7Z"/><path class="cls-1" d="M369,82.77h1.61l-.09,8.32L376,82.77h2.32L378.13,91l5.46-8.27h1.79l-5.95,8.79a1.21,1.21,0,0,1-1,.6h-1.77l.13-8.21-5.06,7.61a1.15,1.15,0,0,1-1.06.6H369Z"/><path class="cls-1" d="M390.11,83.59l-3.7,5h4Zm.36,6.23h-5l-1.72,2.34H382l6.69-8.79a1.22,1.22,0,0,1,1.12-.6h1.75l.63,9.39H390.6Z"/><polygon class="cls-1" points="394.97 92.16 396.46 88.08 393.98 82.77 395.6 82.77 397.57 86.94 402.6 82.77 404.58 82.77 398.07 88.19 396.63 92.16 394.97 92.16"/><polygon class="cls-1" points="409.45 88.6 408.16 92.16 406.5 92.16 409.92 82.77 417.72 82.77 417.26 84.01 411.12 84.01 409.91 87.34 415.46 87.34 415.01 88.6 409.45 88.6"/><path class="cls-1" d="M425.77,87.62c.85-2.35.14-3.74-2.54-3.74-2.15,0-3.51.83-4.45,3.41-.86,2.36-.16,3.76,2.52,3.76,2.16,0,3.52-.84,4.47-3.43m-8.58-.54c1.11-3,3-4.47,6.17-4.47,4.15,0,5,2.43,4,5.23-1.12,3-3,4.47-6.17,4.47-4.16,0-5-2.42-4-5.23"/><path class="cls-1" d="M432.66,84l-1.34,3.68h2.24c2.11,0,3-.27,3.39-1.53.55-1.55.12-2.15-2.22-2.15Zm1.12,4.91h-2.91l-1.18,3.26H428l3.42-9.39h3.67c3.33,0,4.23,1.44,3.43,3.6a3.47,3.47,0,0,1-3.26,2.32l1.36,3.47H435Z"/><path class="cls-1" d="M440.84,82.77h1.62l-.09,8.32,5.44-8.32h2.32l-.2,8.27,5.47-8.27h1.78l-5.94,8.79a1.22,1.22,0,0,1-1,.6h-1.77l.13-8.21-5.06,7.61a1.13,1.13,0,0,1-1.06.6h-1.6Z"/><path class="cls-1" d="M461.92,83.59l-3.71,5h4Zm.35,6.23h-5l-1.72,2.34h-1.79l6.69-8.79a1.23,1.23,0,0,1,1.13-.6h1.74l.63,9.39H462.4Z"/><path class="cls-1" d="M470.08,84l-1.34,3.68H471c2.12,0,3-.27,3.39-1.53.55-1.55.12-2.15-2.21-2.15Zm1.12,4.91h-2.9l-1.19,3.26h-1.66l3.42-9.39h3.68c3.32,0,4.22,1.44,3.43,3.6a3.49,3.49,0,0,1-3.26,2.32l1.35,3.47h-1.69Z"/><path class="cls-1" d="M481,84l-2.51,6.9h2.61c2.45,0,3.68-.84,4.57-3.32.78-2.19.07-3.58-2.08-3.58Zm-1.2-1.24h3.9c3.53,0,4.54,2.37,3.54,5.07-1.07,3-2.83,4.32-6.19,4.32h-4.67Z"/></g></g></svg>