<svg xmlns="http://www.w3.org/2000/svg" viewBox="0 0 242 52.81"><defs><style>.cls-1{fill:#fce500;}.cls-2{fill:#27509b;}</style></defs><title>myearnings-logo</title><g id="Layer_2" data-name="Layer 2"><g id="Layer_1-2" data-name="Layer 1"><g id="Layer_1-2-2" data-name="Layer 1-2"><path class="cls-1" d="M223.07,15a18.86,18.86,0,0,0-13.69,31.91H2.63L0,52.81H223.07v0a18.88,18.88,0,1,0,0-37.76Z"/><path id="Vector_11" data-name="Vector 11" class="cls-2" d="M223.07,46.93A13,13,0,1,0,210,33.9,13,13,0,0,0,223.07,46.93Z"/><path class="cls-1" d="M228.68,29.78l-3.71.59a3.73,3.73,0,0,0-.5-1,2.48,2.48,0,0,0-.74-.55v2.88a10.78,10.78,0,0,1,4,1.7,3.93,3.93,0,0,1,1.34,3.06,4.18,4.18,0,0,1-.48,2A4.84,4.84,0,0,1,227.4,40a5.05,5.05,0,0,1-1.6.88,7.9,7.9,0,0,1-2.07.32v1.89h-1.46V41.19a8.91,8.91,0,0,1-2.37-.47,4.85,4.85,0,0,1-1.57-.95,4.75,4.75,0,0,1-1-1.31,6.07,6.07,0,0,1-.54-1.7l4-.46a3.86,3.86,0,0,0,.48,1.42,2.68,2.68,0,0,0,1,.78V35a18.61,18.61,0,0,1-2.85-1A3.84,3.84,0,0,1,218,32.7a3.8,3.8,0,0,1-.61-2.2,3.92,3.92,0,0,1,1.24-3,5.59,5.59,0,0,1,3.68-1.32v-1h1.46v1a6.13,6.13,0,0,1,3.41,1.05A4.31,4.31,0,0,1,228.68,29.78Zm-6.41-1a1.81,1.81,0,0,0-.88.52,1.12,1.12,0,0,0-.25.73,1.18,1.18,0,0,0,.25.76,1.88,1.88,0,0,0,.88.55Zm1.46,9.8A2.27,2.27,0,0,0,225,38a1.41,1.41,0,0,0,.39-1,1.33,1.33,0,0,0-.33-.87,3.14,3.14,0,0,0-1.3-.73Z"/></g><path class="cls-2" d="M12,29.21,7.44,41.65H3.79l5.6-15.38H13.6c1.36,0,1.81.62,1.86,2l.66,9.14,8.69-11.17h6.54L25.76,41.65H21.63l4.53-12.33L16.57,41.65H12.7Z"/><path class="cls-2" d="M33.89,41.65l2.26-6.22-3.78-9.16h3.91L39,32.51l7.23-6.24h4.72L40.08,35.88,38,41.65Z"/><path class="cls-2" d="M53.68,26.27h14.8L67.2,29.81H58.44l-.85,2.35h7.88l-1.32,3.55H56.28l-.87,2.39h8.76l-1.28,3.55H48.08Z"/><path class="cls-2" d="M78.9,39H72.51l-1.77,2.67H64.48L74,28.23a3.8,3.8,0,0,1,3.48-2h7V41.65H78.84Zm.24-10L75,35.28h4Z"/><path class="cls-2" d="M96,37.21H94.09l-1.62,4.44h-6L92,26.27h8.22c6.05,0,7.78,2.43,6.37,6.32-.85,2.37-2.56,3.36-5.11,3.72l2.36,5.34H97.64Zm.77-7.4-1.41,3.85h1.71c2.18,0,3.06-.17,3.59-1.69.51-1.37.24-2.16-2.07-2.16Z"/><path class="cls-2" d="M116,30.39l-4.1,11.26h-5.24l5.6-15.38h6.54c1.54,0,2.07.87,2.07,2.33l1,9.06L126,26.27h5.26l-5.6,15.38H117Z"/><path class="cls-2" d="M129.66,41.65l5.6-15.38h6.05l-5.6,15.38Z"/><path class="cls-2" d="M149,30.39l-4.1,11.26h-5.24l5.6-15.38h6.54c1.54,0,2.07.87,2.07,2.33l1,9.06L159,26.27h5.26l-5.6,15.38h-8.68Z"/><path class="cls-2" d="M172.66,42c-7.46,0-10-3.57-7.93-9.28,2-5.34,6.46-6.88,11.8-6.88a19.64,19.64,0,0,1,6.6,1.16l-1.36,3.82a13.92,13.92,0,0,0-5.11-1.05c-2.89,0-5.13.84-6.24,4.06s.23,4.36,3.5,4.36c.26,0,.52,0,.79,0l1.37-3.8h5.71l-2.52,7A26.11,26.11,0,0,1,172.66,42Z"/><path class="cls-2" d="M182.41,40.82l1.3-3.55a15.89,15.89,0,0,0,5.82,1.16c2.22,0,3.07-.28,3.44-1.14s0-1.26-.94-1.45l-2.33-.41c-3.91-.66-4.73-2.63-3.74-5.36,1.07-3,4-4.19,8.57-4.19a19.35,19.35,0,0,1,7,1.16l-1.26,3.52a15.55,15.55,0,0,0-5.57-1.07c-1.88,0-2.67.24-3,1s-.07,1.06.83,1.26l2.35.4c4,.66,4.85,2.82,3.76,5.69-1.22,3.22-4.19,4.21-8.52,4.21A20.21,20.21,0,0,1,182.41,40.82Z"/><path class="cls-2" d="M55.49.42,48.61,19.09h9L64.53.42Zm141.1,0-4.72,12.81c.07-1.29.32-6.38.48-9.32a3.58,3.58,0,0,0-.78-2.75,2.47,2.47,0,0,0-1.64-.74H179.42l-6.87,18.67h7.61L185,5.87l-.58,13.22h12.79L204.13.42Zm-159,0L31,10.44s.43-5.24.53-6.51c.08-1,0-3.51-2.38-3.51H18.66L11.8,19.09H20L25,5.58,23.93,19.09h7.29l9-13.27L35.29,19.09h8.26L50.42.42Zm69.09,0-2.49,6.71H99.65L102.13.42H93.5L86.65,19.09h8.6l2.34-6.32h4.56l-2.34,6.32h8.61L115.3.42ZM77.06.58c-5.48,1.12-12.9,5.15-12.82,12.5,0,4.23,5.16,6.58,11,6.42a49,49,0,0,0,6.83-.76l2.2-5.66c-2.89.45-5.66,1.15-7.83.28-3.92-1.56-1.5-5.64,1.26-6.9a11.14,11.14,0,0,1,4.88-1c.82,0,2.85,0,3.63,1.84L89,.69A28.62,28.62,0,0,0,77.06.58Zm50.07,4.73h10.32L139.26.42H120.41l-6.88,18.67h19.1l1.84-5H123.92L124.7,12h9.84l1.67-4.61h-9.85ZM165.29.42l-6.88,18.67h9.05L174.34.42ZM153,.42h-8.82l-6.88,18.67H155l2.28-6.2h-8.86Z"/></g></g></svg>